<svg xmlns="http://www.w3.org/2000/svg" viewBox="0 0 32 32" fill="none">
  <circle cx="16" cy="16" r="16" fill="#00857E"/>
  <path d="M16 6C10.477 6 6 10.477 6 16s4.477 10 10 10 10-4.477 10-10S21.523 6 16 6zm0 3a7 7 0 1 1 0 14A7 7 0 0 1 16 9z" fill="white" opacity="0.15"/>
  <path d="M11 13.5c0-1.38.56-2.63 1.46-3.54A4.97 4.97 0 0 1 16 8.5c1.38 0 2.63.56 3.54 1.46L11.46 17.96A4.97 4.97 0 0 1 11 16v-2.5z" fill="white"/>
  <path d="M21 18.5c0 1.38-.56 2.63-1.46 3.54A4.97 4.97 0 0 1 16 23.5c-1.38 0-2.63-.56-3.54-1.46l8.08-8.08c.6.91.96 1.99.96 3.04v1.5z" fill="white"/>
  <circle cx="16" cy="16" r="2.5" fill="white" opacity="0.9"/>
</svg>
